<svg width="20" height="20" viewBox="0 0 20 20" fill="none" xmlns="http://www.w3.org/2000/svg">
<path d="M11.82 20H8.18004C7.71016 20 7.3036 19.673 7.20304 19.214L6.79604 17.33C6.25309 17.0921 5.73827 16.7946 5.26104 16.443L3.42404 17.028C2.97604 17.1709 2.48903 16.9823 2.25404 16.575L0.43004 13.424C0.197628 13.0165 0.277699 12.5025 0.623041 12.185L2.04804 10.885C1.98324 10.2961 1.98324 9.70189 2.04804 9.113L0.623041 7.816C0.27719 7.49837 0.197088 6.98372 0.43004 6.576L2.25004 3.423C2.48503 3.0157 2.97204 2.82714 3.42004 2.97L5.25704 3.555C5.5011 3.37416 5.75517 3.20722 6.01804 3.055C6.27038 2.91269 6.53008 2.78385 6.79604 2.669L7.20404 0.787C7.30411 0.327969 7.71023 0.000494393 8.18004 0H11.82C12.2899 0.000494393 12.696 0.327969 12.796 0.787L13.208 2.67C13.4888 2.79352 13.7623 2.93308 14.027 3.088C14.274 3.23081 14.5127 3.38739 14.742 3.557L16.58 2.972C17.0277 2.82967 17.5142 3.01816 17.749 3.425L19.569 6.578C19.8015 6.98548 19.7214 7.49951 19.376 7.817L17.951 9.117C18.0158 9.70589 18.0158 10.3001 17.951 10.889L19.376 12.189C19.7214 12.5065 19.8015 13.0205 19.569 13.428L17.749 16.581C17.5142 16.9878 17.0277 17.1763 16.58 17.034L14.742 16.449C14.5095 16.6203 14.2678 16.7789 14.018 16.924C13.7559 17.0759 13.4854 17.2131 13.208 17.335L12.796 19.214C12.6956 19.6726 12.2895 19.9996 11.82 20ZM5.62004 14.229L6.44004 14.829C6.62489 14.9652 6.81755 15.0904 7.01704 15.204C7.20474 15.3127 7.39801 15.4115 7.59604 15.5L8.52904 15.909L8.98604 18H11.016L11.473 15.908L12.406 15.499C12.8133 15.3194 13.1999 15.0961 13.559 14.833L14.38 14.233L16.421 14.883L17.436 13.125L15.853 11.682L15.965 10.67C16.0142 10.2274 16.0142 9.78064 15.965 9.338L15.853 8.326L17.437 6.88L16.421 5.121L14.38 5.771L13.559 5.171C13.1998 4.90671 12.8133 4.68175 12.406 4.5L11.473 4.091L11.016 2H8.98604L8.52704 4.092L7.59604 4.5C7.39785 4.58704 7.20456 4.68486 7.01704 4.793C6.81878 4.90633 6.62713 5.03086 6.44304 5.166L5.62204 5.766L3.58204 5.116L2.56504 6.88L4.14804 8.321L4.03604 9.334C3.98684 9.77664 3.98684 10.2234 4.03604 10.666L4.14804 11.678L2.56504 13.121L3.58004 14.879L5.62004 14.229ZM9.99604 14C7.7869 14 5.99604 12.2091 5.99604 10C5.99604 7.79086 7.7869 6 9.99604 6C12.2052 6 13.996 7.79086 13.996 10C13.9933 12.208 12.204 13.9972 9.99604 14ZM9.99604 8C8.90344 8.00111 8.01393 8.87885 7.99827 9.97134C7.98262 11.0638 8.84661 11.9667 9.93873 11.9991C11.0309 12.0315 11.9469 11.1815 11.996 10.09V10.49V10C11.996 8.89543 11.1006 8 9.99604 8Z" fill="#FFFFFF"/>
</svg>
