<svg width="20" height="15" viewBox="0 0 20 15" fill="none" xmlns="http://www.w3.org/2000/svg">
<path d="M10 13.9999C8.35987 14.0203 6.7367 13.6663 5.254 12.9649C4.10469 12.4041 3.07265 11.6296 2.213 10.6829C1.30243 9.70398 0.585467 8.56152 0.1 7.31586L0 6.99986L0.105 6.68386C0.590815 5.43929 1.30624 4.29713 2.214 3.31686C3.07334 2.37017 4.10504 1.59572 5.254 1.03486C6.73671 0.333445 8.35988 -0.0205321 10 -0.000143192C11.6401 -0.0204969 13.2633 0.333479 14.746 1.03486C15.8953 1.59559 16.9274 2.37005 17.787 3.31686C18.6993 4.29441 19.4165 5.43722 19.9 6.68386L20 6.99986L19.895 7.31586C18.3262 11.3996 14.3742 14.0692 10 13.9999ZM10 1.99986C6.59587 1.89319 3.47142 3.87495 2.117 6.99986C3.4712 10.125 6.59579 12.1068 10 11.9999C13.4041 12.1062 16.5284 10.1246 17.883 6.99986C16.5304 3.87344 13.4047 1.89094 10 1.99986ZM10 9.99986C8.55733 10.0094 7.30937 8.99722 7.02097 7.58363C6.73256 6.17004 7.48427 4.74988 8.81538 4.19352C10.1465 3.63716 11.6852 4.09999 12.4885 5.29836C13.2919 6.49673 13.1354 8.09593 12.115 9.11586C11.5563 9.68111 10.7948 9.99942 10 9.99986Z" fill="#5D60BA"/>
</svg>
